name C:\Users\r0593348\3dpredictsim\Results\Batchsim_tmt_linear_v2\Pog_s1_tmt_aCst_d02_k250_ig24.mot
datacolumns 128
datarows 4
range 0.54056534 0.57299926
endheader
time	pelvis_tilt	pelvis_list	pelvis_rotation	pelvis_tx	pelvis_ty	pelvis_tz	hip_flexion_l	hip_adduction_l	hip_rotation_l	hip_flexion_r	hip_adduction_r	hip_rotation_r	knee_angle_l	knee_angle_r	ankle_angle_l	ankle_angle_r	subtalar_angle_l	subtalar_angle_r	tmt_angle_l	tmt_angle_r	mtp_angle_l	mtp_angle_r	lumbar_extension	lumbar_bending	lumbar_rotation	arm_flex_l	arm_add_l	arm_rot_l	arm_flex_r	arm_add_r	arm_rot_r	elbow_flex_l	elbow_flex_r	pro_sup_l	pro_sup_r	glut_med1_l/activation	glut_med2_l/activation	glut_med3_l/activation	glut_min1_l/activation	glut_min2_l/activation	glut_min3_l/activation	semimem_l/activation	semiten_l/activation	bifemlh_l/activation	bifemsh_l/activation	sar_l/activation	add_long_l/activation	add_brev_l/activation	add_mag1_l/activation	add_mag2_l/activation	add_mag3_l/activation	tfl_l/activation	pect_l/activation	grac_l/activation	glut_max1_l/activation	glut_max2_l/activation	glut_max3_l/activation	iliacus_l/activation	psoas_l/activation	quad_fem_l/activation	gem_l/activation	peri_l/activation	rect_fem_l/activation	vas_med_l/activation	vas_int_l/activation	vas_lat_l/activation	med_gas_l/activation	lat_gas_l/activation	soleus_l/activation	tib_post_l/activation	flex_dig_l/activation	flex_hal_l/activation	tib_ant_l/activation	per_brev_l/activation	per_long_l/activation	per_tert_l/activation	ext_dig_l/activation	ext_hal_l/activation	ercspn_l/activation	intobl_l/activation	extobl_l/activation	glut_med1_r/activation	glut_med2_r/activation	glut_med3_r/activation	glut_min1_r/activation	glut_min2_r/activation	glut_min3_r/activation	semimem_r/activation	semiten_r/activation	bifemlh_r/activation	bifemsh_r/activation	sar_r/activation	add_long_r/activation	add_brev_r/activation	add_mag1_r/activation	add_mag2_r/activation	add_mag3_r/activation	tfl_r/activation	pect_r/activation	grac_r/activation	glut_max1_r/activation	glut_max2_r/activation	glut_max3_r/activation	iliacus_r/activation	psoas_r/activation	quad_fem_r/activation	gem_r/activation	peri_r/activation	rect_fem_r/activation	vas_med_r/activation	vas_int_r/activation	vas_lat_r/activation	med_gas_r/activation	lat_gas_r/activation	soleus_r/activation	tib_post_r/activation	flex_dig_r/activation	flex_hal_r/activation	tib_ant_r/activation	per_brev_r/activation	per_long_r/activation	per_tert_r/activation	ext_dig_r/activation	ext_hal_r/activation	ercspn_r/activation	intobl_r/activation	extobl_r/activation	
          0.54056534	         -2.91343430	         -1.06681197	         -5.09858112	          0.67570667	          0.87003794	          0.00292484	         27.54195465	         -0.56774708	         -2.01622991	        -17.22244250	          1.52440570	          6.59380109	         -8.42296453	         -7.20296242	          6.59018916	         -8.72805674	          4.33566816	          9.34499926	          0.14195291	          4.22100342	         -0.08589886	         25.20284975	          0.51258594	          3.07605543	          1.58202750	         -8.98469964	        -13.45039145	         14.17558072	          3.95928591	        -13.48106114	         12.87984597	         16.46401025	         26.30842140	         86.51662706	         86.51662706	          0.09980148	          0.05000133	          0.07182630	          0.05000011	          0.05000023	          0.05900729	          0.05900967	          0.05900964	          0.05916005	          0.05900950	          0.05000046	          0.05000031	          0.08096606	          0.12252426	          0.13809104	          0.11093592	          0.05900911	          0.05000199	          0.05901169	          0.06964204	          0.09314672	          0.12283324	          0.05000005	          0.05000005	          0.16756574	          0.05167408	          0.06591543	          0.05000004	          0.05000027	          0.05000040	          0.05000023	          0.05900941	          0.05900942	          0.05900941	          0.05900928	          0.05900848	          0.05900948	          0.44587193	          0.27768143	          0.17285127	          0.17328893	          0.48777953	          0.21584001	          0.05000003	          0.13510718	          0.12541201	          0.29908686	          0.08936109	          0.07136058	          0.27393117	          0.16355575	          0.08948626	          0.05000111	          0.05000010	          0.05000007	          0.05000011	          0.07263761	          0.06188169	          0.05000021	          0.05000029	          0.05000089	          0.05000042	          0.22963090	          0.05000208	          0.05000032	          0.05000115	          0.05000077	          0.05000068	          0.29767218	          0.55858933	          0.05000006	          0.05000026	          0.05187778	          0.22634377	          0.09208694	          0.08989034	          0.08177092	          0.17713731	          0.24985560	          0.22159424	          0.19346819	          0.20330611	          0.25178570	          0.05000000	          0.10120283	          0.15179383	          0.05000007	          0.05000001	          0.05000006	          0.05000000	          0.05000001	          0.05000023	
          0.55137665	         -2.89278368	         -1.09809671	         -5.23316300	          0.69276691	          0.86891449	          0.00277253	         27.01869925	         -0.34918299	         -1.80901793	        -16.92882626	          1.38957943	          6.33293468	         -8.69375762	         -9.51908448	          5.87441705	         -9.38172034	          3.92251117	         10.43021109	          0.12162266	          3.82252224	         -0.07019045	         26.07308468	          0.74101205	          2.87078075	          1.63406187	        -10.16488330	        -13.45072036	         14.00558550	          3.68699556	        -13.51399886	         13.17344973	         16.51074884	         27.15582243	         86.51662706	         86.51662706	          0.08456405	          0.05000018	          0.06086009	          0.05000230	          0.05000060	          0.05000021	          0.05000021	          0.05000020	          0.05012764	          0.05000010	          0.05000442	          0.09247569	          0.10734842	          0.23660457	          0.20813872	          0.11005447	          0.05000020	          0.05001051	          0.05000202	          0.05900936	          0.07892536	          0.14452999	          0.06005704	          0.05901469	          0.38572846	          0.12793780	          0.15132614	          0.08219172	          0.29881638	          0.31339446	          0.24650174	          0.05000000	          0.05000001	          0.05000000	          0.05000007	          0.05000066	          0.05000024	          0.53804931	          0.23528583	          0.18361521	          0.40730710	          0.55850725	          0.31842834	          0.05000000	          0.11447933	          0.10626440	          0.25342300	          0.07571765	          0.06046544	          0.23210805	          0.13858446	          0.07582373	          0.05000081	          0.05000009	          0.05000013	          0.05000007	          0.06154754	          0.14154409	          0.21779527	          0.14563637	          0.05000420	          0.05000144	          0.19457141	          0.05905319	          0.05000117	          0.05000144	          0.05000091	          0.05000117	          0.25222429	          0.47330523	          0.06358126	          0.05901014	          0.05900943	          0.19178614	          0.13510664	          0.13510688	          0.10547811	          0.15009240	          0.21170823	          0.18776175	          0.16392995	          0.17226594	          0.21334371	          0.05000001	          0.08575145	          0.12861835	          0.05000007	          0.05000007	          0.05000009	          0.05000008	          0.08219100	          0.08094479	
          0.56218795	         -2.86603897	         -1.10984507	         -5.34306768	          0.71005281	          0.86760015	          0.00262821	         26.35216457	         -0.17660491	         -1.55968862	        -16.54264676	          1.24781194	          6.05620857	         -9.33919715	        -12.00748275	          5.17224689	         -9.94008067	          3.48526229	         11.47125974	         -0.07415085	          3.24990069	         -0.12684179	         26.52023406	          0.98228782	          2.63433410	          1.67567584	        -11.34382787	        -13.46370118	         13.90613330	          3.35334453	        -13.55252126	         13.41628006	         16.54443489	         28.00299513	         86.51662706	         86.51662706	          0.28296599	          0.19215657	          0.20204752	          0.05000020	          0.05000020	          0.25250350	          0.08098691	          0.05000012	          0.07825737	          0.05000003	          0.05000014	          0.07835682	          0.09700037	          0.20048040	          0.17636097	          0.12742751	          0.05000057	          0.06964023	          0.05000058	          0.05000017	          0.06687532	          0.12246362	          0.05174752	          0.05000468	          0.32683634	          0.10840460	          0.16494459	          0.06964288	          0.25319380	          0.26554614	          0.20886645	          0.05900943	          0.05900946	          0.05900942	          0.05900905	          0.05900946	          0.05900947	          0.45590119	          0.30304409	          0.15558140	          0.34512043	          0.57943630	          0.42559181	          0.05000000	          0.09700090	          0.09004020	          0.26211674	          0.06415727	          0.05123374	          0.19667042	          0.11742574	          0.06424716	          0.06679254	          0.05000007	          0.05000012	          0.05000001	          0.05215067	          0.14344172	          0.37055214	          0.12340150	          0.05901294	          0.11460383	          0.16486474	          0.05003759	          0.05000022	          0.05002996	          0.05900865	          0.05900935	          0.21371528	          0.42656529	          0.05387398	          0.05000076	          0.05000005	          0.16250468	          0.11447890	          0.11447910	          0.08937398	          0.12717664	          0.17938512	          0.15909472	          0.13890152	          0.14596484	          0.18077092	          0.05051767	          0.07266029	          0.14399958	          0.05000013	          0.18135852	          0.09076973	          0.05000000	          0.06964228	          0.06858640	
          0.57299926	         -2.83620987	         -1.10702050	         -5.42799562	          0.72734202	          0.86607985	          0.00248341	         25.54285566	         -0.02589952	         -1.29095783	        -16.05766582	          1.10635314	          5.76743861	         -9.93178710	        -14.65672849	          4.54162162	        -10.29485055	          3.02357201	         12.43316505	         -0.03193722	          2.52685041	         -0.17774850	         26.26204824	          1.21528676	          2.37486472	          1.70708157	        -12.47777370	        -13.48919953	         13.89892826	          2.99708463	        -13.59873760	         13.62885467	         16.54168056	         28.83671807	         86.51662706	         86.51662706	          0.33726796	          0.32947389	          0.35987184	          0.16909620	          0.20126448	          0.24557811	          0.06862209	          0.09225144	          0.06964607	          0.08219105	          0.05001006	          0.06639350	          0.08219060	          0.16987159	          0.17475990	          0.15879100	          0.05000012	          0.05900794	          0.08219110	          0.21495113	          0.16685047	          0.16195623	          0.05000007	          0.05000006	          0.27693575	          0.09185378	          0.19812760	          0.05900997	          0.21453678	          0.22500320	          0.17697722	          0.05000002	          0.05000004	          0.05000000	          0.05000000	          0.05000008	          0.05000007	          0.61564916	          0.31144137	          0.16089317	          0.61942282	          0.64859055	          0.36061411	          0.05276841	          0.08219103	          0.07629307	          0.22209740	          0.05436190	          0.05000000	          0.16733468	          0.09949748	          0.05443809	          0.09088868	          0.05207149	          0.05000073	          0.05900753	          0.06964061	          0.17447569	          0.31397728	          0.10456100	          0.05000334	          0.09710650	          0.13969362	          0.08545815	          0.05000116	          0.05000022	          0.05000016	          0.05000019	          0.18108575	          0.37995360	          0.05000001	          0.05000011	          0.05000012	          0.13769384	          0.09700054	          0.09700070	          0.07572858	          0.10775961	          0.15199703	          0.13480451	          0.11769439	          0.12367936	          0.15317130	          0.08630034	          0.09702095	          0.12201412	          0.11828944	          0.21338658	          0.11374739	          0.08399255	          0.05900946	          0.05811480	
